<?xml version="1.0" encoding="iso-8859-1"?>
<!-- Generator: Adobe Illustrator 19.0.0, SVG Export Plug-In . SVG Version: 6.00 Build 0)  -->
<svg version="1.1" id="Layer_1" xmlns="http://www.w3.org/2000/svg" xmlns:xlink="http://www.w3.org/1999/xlink" x="0px" y="0px"
	 viewBox="0 0 512 512" style="enable-background:new 0 0 512 512; fill: #DD7F73;" xml:space="preserve">
<g>
	<g>
		<path d="M448,266.667h-51.925l-3.008-5.013c-8.299-13.845-18.347-26.304-29.397-37.653h41.664
			c11.797,0,21.333-9.536,21.333-21.333c0-11.797-9.536-21.333-21.333-21.333H304.277C276.267,167.787,245.397,160,213.525,160
			C166.379,160,128,198.379,128,245.525v21.141h-21.333v-192c0-11.797-9.536-21.333-21.333-21.333
			C73.536,53.333,64,62.869,64,74.667v192c-35.285,0-64,28.715-64,64c0,70.592,57.408,128,128,128h256c70.592,0,128-57.408,128-128
			C512,295.381,483.285,266.667,448,266.667z M448,352H64c-11.776,0-21.333-9.557-21.333-21.333S52.224,309.333,64,309.333h85.333
			H384h64c11.776,0,21.333,9.557,21.333,21.333S459.776,352,448,352z"/>
	</g>
</g>
<g>
</g>
<g>
</g>
<g>
</g>
<g>
</g>
<g>
</g>
<g>
</g>
<g>
</g>
<g>
</g>
<g>
</g>
<g>
</g>
<g>
</g>
<g>
</g>
<g>
</g>
<g>
</g>
<g>
</g>
</svg>
